:SAMPLES-PER-SECOND 30
:FULLY-SPECIFIED
:DEGREES
35
root  34.80799517 36.50956342 -14.91628181 7.9748106 -2.421256542 3.522672653
lowerback  -7.93723917 -0.3474229574 -0.06719719619
upperback  -3.656219959 -0.05820859969 -2.914540052
thorax  0.667576015 0.1039350033 -2.972949982
lowerneck  -14.77630043 0.2419340014 -0.448740989
upperneck  17.48270035 -0.2696869671 5.419889927
head  7.85033989 0.531118989 1.861029983
lclavicle  0 -4.497500157e-015 -2.743230041e-014
lhumerus  -46.04869843 26.12039948 68.55039978
lradius  -0.01798331738 -6.507048965e-006 30.99239922
lwrist  4.824992743e-007 -3.790274832e-007 -25.33390045
lhand  -0 -36.91109848 -10.63360023
lfingers  90 7.125020027 -90
lthumb  94.81244006 -25.46989261 101.0770517
rclavicle  0 -4.497500157e-015 -2.743230041e-014
rhumerus  -56.90370178 -31.17650032 -54.18939972
rradius  -5.16745672e-007 2.214343908e-008 50.07960129
rwrist  -7.499573258e-005 0.03438235447 -161.8769989
rhand  -1.766791629e-031 -2.137300014 -7.684050083
rfingers  -90 -7.125020027 -90
rthumb  -86.48752641 -8.004549636 -66.2124668
rfemur  -11.56572342 16.1176796 13.68076134
rtibia  -1.436694145 -0.09452746063 21.17167664
rfoot  -0.2040721625 -20.30055237 -38.27037811
rtoes  4.091169883 19.59388102 -102.0400338
lfemur  -7.724765301 -17.96715736 -20.01862526
ltibia  2.49936986 -0.4856235087 14.71505356
lfoot  0.7244207859 -24.56806374 36.65977859
ltoes  -8.676014735 -18.09001178 -116.1707111
36
root  34.80789905 36.51017016 -14.91787978 7.992248058 -2.440267801 3.541501999
lowerback  -7.890159607 -0.351717025 -0.03597130999
upperback  -3.668420076 -0.06647530198 -2.929620028
thorax  0.6283550262 0.09927610308 -3.006740093
lowerneck  -14.73859978 0.1614010036 -0.5125709772
upperneck  17.47450066 -0.3796918988 5.508049965
head  7.844810009 0.4841000438 1.888669968
lclavicle  0 -4.497500157e-015 -2.743230041e-014
lhumerus  -46.05009842 25.98040009 68.59449768
lradius  -0.01839878969 -6.507048965e-006 31.04499817
lwrist  4.824992743e-007 -3.790274832e-007 -25.17950249
lhand  -0 -36.90370178 -10.60690022
lfingers  90 7.125020027 -90
lthumb  94.8032965 -25.44379348 101.0667513
rclavicle  0 -4.497500157e-015 -2.743230041e-014
rhumerus  -56.95370102 -30.65130043 -54.4034996
rradius  -5.16745672e-007 2.214343908e-008 51.16239929
rwrist  -7.499573258e-005 0.03438235447 -162.7369995
rhand  -1.767200013e-031 -2.466710091 -7.658199787
rfingers  -90 -7.125020027 -90
rthumb  -86.5377246 -8.010581704 -66.53179902
rfemur  -11.59775162 16.12195396 13.65402985
rtibia  -1.444017529 -0.1152625009 21.18975258
rfoot  -0.2114442438 -20.32065773 -38.26949692
rtoes  4.069473023 19.59822859 -101.9753417
lfemur  -7.765133858 -17.9522171 -20.03168106
ltibia  2.497962713 -0.4966297448 14.73957157
lfoot  0.7355253696 -24.56044006 36.65766144
ltoes  -8.718322212 -18.07018792 -116.3070345
37
root  34.80823547 36.51073185 -14.91926749 8.006893158 -2.468374014 3.544382334
lowerback  -7.818009377 -0.3607389331 -0.00247628917
upperback  -3.699899912 -0.0803117007 -2.950570107
thorax  0.555020988 0.09209939837 -3.048259974
lowerneck  -14.68490028 0.06955210119 -0.5820530057
upperneck  17.45969963 -0.5008070469 5.578450203
head  7.834740162 0.4290570021 1.90989995
lclavicle  0 -4.497500157e-015 -2.743230041e-014
lhumerus  -46.09429932 25.91559982 68.58339691
lradius  -0.01881506667 -6.507048965e-006 31.07640076
lwrist  4.824992743e-007 -3.790274832e-007 -25.13089752
lhand  -4.415548489e-031 -36.89830017 -10.55959988
lfingers  90 7.125020027 -90
lthumb  94.79074775 -25.3976094 101.0566937
rclavicle  0 -4.497500157e-015 -2.743230041e-014
rhumerus  -57.06549835 -30.18179893 -54.51499939
rradius  -5.16745672e-007 2.214343908e-008 52.21960068
rwrist  -7.499573258e-005 0.03438235447 -163.875
rhand  -1.766862857e-031 -2.198319912 -7.641699791
rfingers  -90 -7.125020027 -90
rthumb  -86.48159599 -8.039988717 -66.26945796
rfemur  -11.61976337 16.06375694 13.64287472
rtibia  -1.443415403 -0.1370949745 21.18508148
rfoot  -0.1918080002 -20.34572983 -38.19417191
rtoes  4.073237573 19.59747599 -101.9865652
lfemur  -7.825997353 -17.88024521 -20.01107407
ltibia  2.474005699 -0.4985045493 14.80024147
lfoot  0.7542896867 -24.61436081 36.63707352
ltoes  -8.701386425 -18.07813801 -116.2524466
38
root  34.80820543 36.5114197 -14.92093604 8.02960968 -2.496162653 3.563183069
lowerback  -7.815879822 -0.3960199952 -0.04327328876
upperback  -3.682169914 -0.1280789971 -2.910739899
thorax  0.5700420141 0.06767489761 -2.987750053
lowerneck  -14.63469982 0.01471909974 -0.6344900131
upperneck  17.40209961 -0.5681139827 5.59954977
head  7.809169769 0.3930239975 1.916919827
lclavicle  0 -4.497500157e-015 -2.743230041e-014
lhumerus  -46.11700058 26.01639938 68.58529663
lradius  -0.01923215576 -6.507048965e-006 31.07830048
lwrist  4.824992743e-007 -3.790274832e-007 -25.08410072
lhand  -4.416926341e-031 -36.92210007 -10.63910007
lfingers  90 7.125020027 -90
lthumb  94.81878769 -25.47488462 101.0893896
rclavicle  0 -4.497500157e-015 -2.743230041e-014
rhumerus  -57.04710007 -29.69440079 -54.64599991
rradius  -5.16745672e-007 2.214343908e-008 53.40280151
rwrist  -7.499573258e-005 0.03438235447 -164.4620056
rhand  -1.766974577e-031 -2.290750027 -7.815090179
rfingers  -90 -7.125020027 -90
rthumb  -86.56887696 -7.876216657 -66.36922568
rfemur  -11.66988754 16.06772995 13.61717892
rtibia  -1.456706762 -0.1547025889 21.21949387
rfoot  -0.2065036595 -20.36188126 -38.19035721
rtoes  4.09954899 19.59219555 -102.0650209
lfemur  -7.858819962 -17.85255432 -20.03077316
ltibia  2.479798317 -0.4960875511 14.80898952
lfoot  0.7614684105 -24.62026787 36.62527084
ltoes  -8.699288918 -18.07912128 -116.2456874
